<svg xmlns="http://www.w3.org/2000/svg" viewBox="0 0 512 512">
  <rect width="512" height="512" rx="80" fill="#1b5e20"/>
  <rect width="512" height="512" rx="80" fill="url(#bg)"/>
  <defs>
    <radialGradient id="bg" cx="50%" cy="40%" r="60%">
      <stop offset="0%" stop-color="#2e7d32"/>
      <stop offset="100%" stop-color="#051a05"/>
    </radialGradient>
  </defs>
  <!-- スペード -->
  <path d="M256 100 C256 100 140 200 140 270 C140 310 170 330 200 325 C185 355 170 370 150 380 L362 380 C342 370 327 355 312 325 C342 330 372 310 372 270 C372 200 256 100 256 100Z" fill="white" opacity="0.95"/>
  <!-- ハート（小） -->
  <path d="M160 430 C160 420 148 415 148 405 C148 398 155 393 163 398 L168 402 L173 398 C181 393 188 398 188 405 C188 415 176 420 168 430 C163 435 160 430 160 430Z" fill="#e53935"/>
  <!-- ダイヤ（小） -->
  <path d="M230 415 L245 430 L260 415 L245 400Z" fill="#e53935"/>
  <!-- クラブ（小） -->
  <path d="M316 405 C316 399 322 395 328 399 C332 395 338 399 338 405 C338 411 334 414 330 413 L332 422 L324 422 L326 413 C322 414 316 411 316 405Z" fill="white" opacity="0.9"/>
  <!-- ハート（小） -->
  <path d="M356 403 C356 396 362 392 367 396 L370 399 L373 396 C378 392 384 396 384 403 C384 411 374 417 370 423 C366 417 356 411 356 403Z" fill="#e53935"/>
</svg>
